<?xml version="1.0" encoding="utf-8"?>
<!-- Generator: Adobe Illustrator 16.0.3, SVG Export Plug-In . SVG Version: 6.00 Build 0)  -->
<!DOCTYPE svg PUBLIC "-//W3C//DTD SVG 1.1//EN" "http://www.w3.org/Graphics/SVG/1.1/DTD/svg11.dtd">
<svg version="1.1" xmlns="http://www.w3.org/2000/svg" xmlns:xlink="http://www.w3.org/1999/xlink" x="0px" y="0px"
	 width="145.133px" height="145.133px" viewBox="0 0 145.133 145.133" enable-background="new 0 0 145.133 145.133"
	 xml:space="preserve">
<g id="Layer_1">
	<rect x="0" fill="#626C77" width="145.133" height="145.134"/>
	<rect x="0" display="none" fill="#4DA7DE" width="145.133" height="145.134"/>
	<path id="twitter" display="none" fill="#FFFFFF" d="M107.34,54.839v2.216c0,8.182-1.905,16.081-5.711,23.694
		c-3.808,7.615-9.688,14.063-17.643,19.348c-7.955,5.283-17.16,7.926-27.614,7.926c-10.115,0-19.262-2.668-27.444-8.012
		c0.908,0.115,2.328,0.17,4.262,0.17c8.523,0,15.964-2.557,22.33-7.67c-3.865,0-7.33-1.164-10.398-3.494
		c-3.068-2.328-5.229-5.311-6.478-8.949c0.794,0.229,1.931,0.34,3.409,0.34c1.705,0,3.294-0.17,4.773-0.51
		c-4.091-0.908-7.5-3.01-10.228-6.309c-2.728-3.294-4.091-7.044-4.091-11.25v-0.341c2.613,1.478,5.284,2.216,8.012,2.216
		c-5.343-3.409-8.012-8.353-8.012-14.83c0-2.954,0.853-5.966,2.557-9.034C44.497,52.17,56.77,58.418,71.885,59.1
		c-0.341-1.363-0.512-2.727-0.512-4.091c0-4.885,1.731-9.09,5.199-12.614c3.464-3.521,7.696-5.284,12.699-5.284
		c5.226,0,9.601,1.875,13.125,5.625c4.432-0.908,8.237-2.327,11.421-4.261c-1.364,4.206-3.979,7.5-7.841,9.887
		c3.976-0.568,7.385-1.534,10.227-2.898C113.817,49.102,110.86,52.225,107.34,54.839z"/>
	<path id="twitter_gray" fill="#C0C4C9" d="M107.34,54.839v2.216c0,8.182-1.905,16.081-5.711,23.694
		c-3.808,7.615-9.688,14.063-17.643,19.348c-7.955,5.283-17.16,7.926-27.614,7.926c-10.115,0-19.262-2.668-27.444-8.012
		c0.908,0.115,2.328,0.17,4.262,0.17c8.523,0,15.964-2.557,22.33-7.67c-3.865,0-7.33-1.164-10.398-3.494
		c-3.068-2.328-5.229-5.311-6.478-8.949c0.794,0.229,1.931,0.34,3.409,0.34c1.705,0,3.294-0.17,4.773-0.51
		c-4.091-0.908-7.5-3.01-10.228-6.309c-2.728-3.294-4.091-7.044-4.091-11.25v-0.341c2.613,1.478,5.284,2.216,8.012,2.216
		c-5.343-3.409-8.012-8.353-8.012-14.83c0-2.954,0.853-5.966,2.557-9.034C44.497,52.17,56.77,58.418,71.885,59.1
		c-0.341-1.363-0.512-2.727-0.512-4.091c0-4.885,1.731-9.09,5.199-12.614c3.464-3.521,7.696-5.284,12.699-5.284
		c5.226,0,9.601,1.875,13.125,5.625c4.432-0.908,8.237-2.327,11.421-4.261c-1.364,4.206-3.979,7.5-7.841,9.887
		c3.976-0.568,7.385-1.534,10.227-2.898C113.817,49.102,110.86,52.225,107.34,54.839z"/>
	<rect x="-0.001" y="-0.167" display="none" fill="#3E5B98" width="145.134" height="145.133"/>
	<path id="fb_gray" display="none" fill="#C0C4C9" d="M65.118,107.705V75.434H54.224v-12.55h10.894v-9.239
		c0-5.241,1.449-9.309,4.345-12.205c2.895-2.896,6.826-4.344,11.791-4.344s8.182,0.186,9.653,0.551v11.17h-6.62
		c-2.392,0-4.022,0.506-4.896,1.517c-0.874,1.014-1.31,2.53-1.31,4.551v7.999h12.412l-1.655,12.55H78.081v32.271H65.118z"/>
	<path id="fb_1_" display="none" fill="#FFFFFF" d="M65.118,107.705V75.434H54.224v-12.55h10.894v-9.239
		c0-5.241,1.449-9.309,4.345-12.205c2.895-2.896,6.826-4.344,11.791-4.344s8.182,0.186,9.653,0.551v11.17h-6.62
		c-2.392,0-4.022,0.506-4.896,1.517c-0.874,1.014-1.31,2.53-1.31,4.551v7.999h12.412l-1.655,12.55H78.081v32.271H65.118z"/>
	<rect y="-0.167" display="none" fill="#DD4B39" width="145.134" height="145.133"/>
	<path id="g_gray" display="none" fill="#C0C4C9" d="M86.26,65.56c1.154,6.793,0.793,13.079-1.083,18.856
		c-1.592,5.782-4.552,10.767-8.887,14.955c-4.334,3.901-9.178,6.36-14.521,7.37c-6.215,1.592-12.284,1.592-18.207,0
		c-4.48-1.156-8.815-3.394-13.004-6.72c-3.901-2.888-7.152-6.79-9.753-11.704c-3.613-7.367-4.623-15.025-3.035-22.974
		c0.576-3.035,1.588-6.069,3.035-9.104c4.334-8.524,11.053-14.376,20.156-17.556c8.236-2.743,16.256-2.672,24.059,0.217
		c4.476,1.592,8.306,3.976,11.486,7.152l-3.468,3.468l-6.502,6.502c-2.167-2.168-4.768-3.685-7.803-4.552
		c-3.035-1.009-6.501-1.154-10.403-0.433c-4.047,0.867-7.586,2.817-10.62,5.852c-2.313,2.313-4.047,5.131-5.202,8.453
		c-1.592,4.625-1.592,9.249,0,13.871c1.588,4.626,4.334,8.236,8.236,10.837c2.601,1.88,5.202,3.034,7.802,3.469
		c2.31,0.577,5.202,0.577,8.67,0c2.743-0.435,5.343-1.444,7.803-3.035c3.9-2.742,6.285-6.428,7.151-11.054H52.665V65.56H86.26z
		 M128.091,75.313h-12.136v12.138h-8.889V75.313H94.93v-8.886h12.137V54.29h8.889v12.138h12.136V75.313z"/>
	<path id="g" display="none" fill="#FFFFFF" d="M86.26,65.56c1.154,6.793,0.793,13.079-1.083,18.856
		c-1.592,5.782-4.552,10.767-8.887,14.955c-4.334,3.901-9.178,6.36-14.521,7.37c-6.215,1.592-12.284,1.592-18.207,0
		c-4.48-1.156-8.815-3.394-13.004-6.72c-3.901-2.888-7.152-6.79-9.753-11.704c-3.613-7.367-4.623-15.025-3.035-22.974
		c0.576-3.035,1.588-6.069,3.035-9.104c4.334-8.524,11.053-14.376,20.156-17.556c8.236-2.743,16.256-2.672,24.059,0.217
		c4.476,1.592,8.306,3.976,11.486,7.152l-3.468,3.468l-6.502,6.502c-2.167-2.168-4.768-3.685-7.803-4.552
		c-3.035-1.009-6.501-1.154-10.403-0.433c-4.047,0.867-7.586,2.817-10.62,5.852c-2.313,2.313-4.047,5.131-5.202,8.453
		c-1.592,4.625-1.592,9.249,0,13.871c1.588,4.626,4.334,8.236,8.236,10.837c2.601,1.88,5.202,3.034,7.802,3.469
		c2.31,0.577,5.202,0.577,8.67,0c2.743-0.435,5.343-1.444,7.803-3.035c3.9-2.742,6.285-6.428,7.151-11.054H52.665V65.56H86.26z
		 M128.091,75.313h-12.136v12.138h-8.889V75.313H94.93v-8.886h12.137V54.29h8.889v12.138h12.136V75.313z"/>
</g>
<g id="Layer_3">
</g>
<g id="Layer_2">
</g>
</svg>
